<mxfile host="app.diagrams.net" modified="2021-05-17T12:03:46.930Z" agent="5.0 (Windows NT 10.0; Win64; x64) AppleWebKit/537.36 (KHTML, like Gecko) Chrome/90.0.4430.212 Safari/537.36" etag="GIdcEfWda7UsYnYFFgeK" version="14.6.13" type="github">
  <diagram id="2dnRWjGWXIbtYsldPg6o" name="Page-1">
    <mxGraphModel dx="2253" dy="776" grid="1" gridSize="10" guides="1" tooltips="1" connect="1" arrows="1" fold="1" page="1" pageScale="1" pageWidth="850" pageHeight="1100" math="0" shadow="0">
      <root>
        <mxCell id="0" />
        <mxCell id="1" parent="0" />
        <mxCell id="MiBwMPWvPkWp_ydGfVft-115" value="" style="rounded=1;whiteSpace=wrap;html=1;shadow=0;glass=0;labelBackgroundColor=none;sketch=0;fontSize=14;strokeColor=#9673a6;fillColor=#e1d5e7;opacity=40;align=left;" vertex="1" parent="1">
          <mxGeometry x="810" y="770" width="440" height="500" as="geometry" />
        </mxCell>
        <mxCell id="MiBwMPWvPkWp_ydGfVft-78" value="" style="rounded=0;whiteSpace=wrap;html=1;shadow=0;glass=0;labelBackgroundColor=none;sketch=0;fontSize=10;strokeColor=#82b366;fillColor=#d5e8d4;opacity=40;align=left;" vertex="1" parent="1">
          <mxGeometry x="830" y="805.25" width="390" height="400" as="geometry" />
        </mxCell>
        <mxCell id="MiBwMPWvPkWp_ydGfVft-80" value="" style="rounded=1;whiteSpace=wrap;html=1;fontSize=17;glass=0;gradientDirection=west;shadow=0;sketch=0;fillColor=#f8cecc;strokeColor=#b85450;opacity=40;" vertex="1" parent="1">
          <mxGeometry x="850" y="900" width="170" height="240" as="geometry" />
        </mxCell>
        <mxCell id="MiBwMPWvPkWp_ydGfVft-48" value="" style="whiteSpace=wrap;html=1;aspect=fixed;rounded=1;shadow=0;glass=0;sketch=0;fontSize=14;strokeColor=#d79b00;fillColor=#ffe6cc;opacity=40;" vertex="1" parent="1">
          <mxGeometry x="200" y="170" width="620" height="620" as="geometry" />
        </mxCell>
        <mxCell id="MiBwMPWvPkWp_ydGfVft-46" value="" style="rounded=0;whiteSpace=wrap;html=1;shadow=0;glass=0;sketch=0;fontSize=10;strokeColor=#36393d;fillColor=#ffcccc;opacity=40;" vertex="1" parent="1">
          <mxGeometry x="560.76" y="222.25" width="239.24" height="550" as="geometry" />
        </mxCell>
        <mxCell id="MiBwMPWvPkWp_ydGfVft-34" value="" style="rounded=1;whiteSpace=wrap;html=1;fontSize=17;glass=0;gradientDirection=west;shadow=0;sketch=0;fillColor=#f8cecc;strokeColor=#b85450;opacity=40;" vertex="1" parent="1">
          <mxGeometry x="585" y="290" width="189.24" height="240" as="geometry" />
        </mxCell>
        <mxCell id="MiBwMPWvPkWp_ydGfVft-1" value="" style="verticalLabelPosition=bottom;html=1;verticalAlign=top;align=center;strokeColor=none;fillColor=#00BEF2;shape=mxgraph.azure.computer;pointerEvents=1;" vertex="1" parent="1">
          <mxGeometry x="-40" y="790" width="100" height="100" as="geometry" />
        </mxCell>
        <mxCell id="MiBwMPWvPkWp_ydGfVft-2" value="Local Machine" style="text;html=1;strokeColor=none;fillColor=none;align=center;verticalAlign=middle;whiteSpace=wrap;rounded=0;fontSize=17;" vertex="1" parent="1">
          <mxGeometry x="-40" y="900" width="120" height="30" as="geometry" />
        </mxCell>
        <mxCell id="MiBwMPWvPkWp_ydGfVft-4" value="" style="endArrow=none;html=1;fontSize=17;exitX=0.5;exitY=0;exitDx=0;exitDy=0;exitPerimeter=0;entryX=0.5;entryY=1;entryDx=0;entryDy=0;" edge="1" parent="1" source="MiBwMPWvPkWp_ydGfVft-1" target="MiBwMPWvPkWp_ydGfVft-5">
          <mxGeometry width="50" height="50" relative="1" as="geometry">
            <mxPoint x="60" y="780" as="sourcePoint" />
            <mxPoint x="80" y="600" as="targetPoint" />
          </mxGeometry>
        </mxCell>
        <mxCell id="MiBwMPWvPkWp_ydGfVft-5" value="" style="aspect=fixed;perimeter=ellipsePerimeter;html=1;align=center;shadow=0;dashed=0;spacingTop=3;image;image=img/lib/active_directory/internet_cloud.svg;fontSize=17;" vertex="1" parent="1">
          <mxGeometry x="-46.25" y="539.12" width="112.5" height="70.88" as="geometry" />
        </mxCell>
        <mxCell id="MiBwMPWvPkWp_ydGfVft-6" value="Internet" style="text;html=1;strokeColor=none;fillColor=none;align=center;verticalAlign=middle;whiteSpace=wrap;rounded=0;fontSize=17;" vertex="1" parent="1">
          <mxGeometry x="-40" y="550" width="90" height="40" as="geometry" />
        </mxCell>
        <mxCell id="MiBwMPWvPkWp_ydGfVft-8" value="SSH&lt;br style=&quot;font-size: 14px;&quot;&gt;HTTP" style="text;html=1;strokeColor=none;fillColor=none;align=center;verticalAlign=middle;whiteSpace=wrap;rounded=0;fontSize=14;" vertex="1" parent="1">
          <mxGeometry x="-10" y="610" width="90" height="40" as="geometry" />
        </mxCell>
        <mxCell id="MiBwMPWvPkWp_ydGfVft-10" value="" style="endArrow=none;html=1;fontSize=17;exitX=0.418;exitY=-0.014;exitDx=0;exitDy=0;exitPerimeter=0;" edge="1" parent="1" source="MiBwMPWvPkWp_ydGfVft-5" target="MiBwMPWvPkWp_ydGfVft-16">
          <mxGeometry width="50" height="50" relative="1" as="geometry">
            <mxPoint x="60" y="530" as="sourcePoint" />
            <mxPoint x="77" y="110" as="targetPoint" />
            <Array as="points">
              <mxPoint x="1" y="115" />
            </Array>
          </mxGeometry>
        </mxCell>
        <mxCell id="MiBwMPWvPkWp_ydGfVft-16" value="" style="fontColor=#0066CC;verticalAlign=top;verticalLabelPosition=bottom;labelPosition=center;align=center;html=1;outlineConnect=0;fillColor=#CCCCCC;strokeColor=#6881B3;gradientColor=none;gradientDirection=north;strokeWidth=2;shape=mxgraph.networks.load_balancer;fontSize=17;" vertex="1" parent="1">
          <mxGeometry x="990" y="100" width="100" height="30" as="geometry" />
        </mxCell>
        <mxCell id="MiBwMPWvPkWp_ydGfVft-23" value="RedTeam-LB&lt;br&gt;&lt;span style=&quot;font-family: &amp;#34;az_ea_font&amp;#34; , &amp;#34;segoe ui&amp;#34; , &amp;#34;az_font&amp;#34; , , , &amp;#34;blinkmacsystemfont&amp;#34; , &amp;#34;roboto&amp;#34; , &amp;#34;oxygen&amp;#34; , &amp;#34;ubuntu&amp;#34; , &amp;#34;cantarell&amp;#34; , &amp;#34;open sans&amp;#34; , &amp;#34;helvetica neue&amp;#34; , sans-serif ; font-size: 16px ; background-color: rgb(255 , 255 , 255)&quot;&gt;13.64.191.4&lt;/span&gt;" style="text;html=1;strokeColor=none;fillColor=none;align=center;verticalAlign=middle;whiteSpace=wrap;rounded=0;fontSize=17;" vertex="1" parent="1">
          <mxGeometry x="980" y="40" width="120" height="30" as="geometry" />
        </mxCell>
        <mxCell id="MiBwMPWvPkWp_ydGfVft-24" value="" style="verticalLabelPosition=bottom;html=1;verticalAlign=top;align=center;strokeColor=none;fillColor=#00BEF2;shape=mxgraph.azure.virtual_machine;fontSize=17;" vertex="1" parent="1">
          <mxGeometry x="590" y="330" width="30" height="30" as="geometry" />
        </mxCell>
        <mxCell id="MiBwMPWvPkWp_ydGfVft-26" value="&lt;div&gt;Web-1&lt;/div&gt;&lt;div align=&quot;left&quot;&gt;&lt;span style=&quot;font-weight: normal&quot;&gt;13.64.191.4/10.1.160&lt;/span&gt;&lt;br&gt;&lt;/div&gt;" style="text;html=1;strokeColor=none;fillColor=none;align=center;verticalAlign=middle;whiteSpace=wrap;rounded=0;fontFamily=Times New Roman;fontSize=14;fontStyle=1" vertex="1" parent="1">
          <mxGeometry x="604.24" y="300" width="101.51" height="30" as="geometry" />
        </mxCell>
        <mxCell id="MiBwMPWvPkWp_ydGfVft-27" value="" style="points=[[0,0.5,0],[0.24,0,0],[0.5,0.28,0],[0.995,0.475,0],[0.5,0.72,0],[0.24,1,0]];verticalLabelPosition=bottom;html=1;verticalAlign=top;aspect=fixed;align=center;pointerEvents=1;shape=mxgraph.cisco19.key;fillColor=#005073;strokeColor=none;fontFamily=Times New Roman;fontSize=14;" vertex="1" parent="1">
          <mxGeometry x="630" y="338.25" width="30" height="13.5" as="geometry" />
        </mxCell>
        <mxCell id="MiBwMPWvPkWp_ydGfVft-28" value="Ansible Public Key" style="text;html=1;strokeColor=none;fillColor=none;align=center;verticalAlign=middle;whiteSpace=wrap;rounded=0;fontFamily=Times New Roman;fontSize=10;fontStyle=1" vertex="1" parent="1">
          <mxGeometry x="670" y="338.25" width="90" height="28.25" as="geometry" />
        </mxCell>
        <mxCell id="MiBwMPWvPkWp_ydGfVft-29" value="&amp;nbsp;&amp;nbsp;&amp;nbsp;&amp;nbsp;&amp;nbsp;&lt;font style=&quot;font-size: 10px;&quot;&gt; &lt;b style=&quot;font-size: 10px;&quot;&gt;DVWA&lt;/b&gt;&lt;/font&gt;" style="aspect=fixed;html=1;points=[];align=left;image;fontSize=10;image=img/lib/mscae/Docker.svg;fontFamily=Times New Roman;labelPosition=right;verticalLabelPosition=middle;verticalAlign=middle;labelBackgroundColor=none;" vertex="1" parent="1">
          <mxGeometry x="590" y="366.5" width="28.66" height="23.5" as="geometry" />
        </mxCell>
        <mxCell id="MiBwMPWvPkWp_ydGfVft-36" value="" style="rounded=1;whiteSpace=wrap;html=1;fontSize=17;glass=0;gradientDirection=west;shadow=0;sketch=0;fillColor=#f8cecc;strokeColor=#b85450;opacity=40;" vertex="1" parent="1">
          <mxGeometry x="580" y="570" width="190" height="190" as="geometry" />
        </mxCell>
        <mxCell id="MiBwMPWvPkWp_ydGfVft-37" value="&lt;div&gt;Web-2&lt;/div&gt;&lt;div align=&quot;left&quot;&gt;&lt;span style=&quot;font-weight: normal&quot;&gt;13.64.191.4/10.1.0.170&lt;/span&gt;&lt;br&gt;&lt;/div&gt;" style="text;html=1;strokeColor=none;fillColor=none;align=center;verticalAlign=middle;whiteSpace=wrap;rounded=0;fontFamily=Times New Roman;fontSize=14;fontStyle=1" vertex="1" parent="1">
          <mxGeometry x="560" y="560" width="190" height="60" as="geometry" />
        </mxCell>
        <mxCell id="MiBwMPWvPkWp_ydGfVft-38" value="" style="verticalLabelPosition=bottom;html=1;verticalAlign=top;align=center;strokeColor=none;fillColor=#00BEF2;shape=mxgraph.azure.virtual_machine;fontSize=17;" vertex="1" parent="1">
          <mxGeometry x="590" y="610" width="30" height="30" as="geometry" />
        </mxCell>
        <mxCell id="MiBwMPWvPkWp_ydGfVft-40" value="" style="points=[[0,0.5,0],[0.24,0,0],[0.5,0.28,0],[0.995,0.475,0],[0.5,0.72,0],[0.24,1,0]];verticalLabelPosition=bottom;html=1;verticalAlign=top;aspect=fixed;align=center;pointerEvents=1;shape=mxgraph.cisco19.key;fillColor=#005073;strokeColor=none;fontFamily=Times New Roman;fontSize=14;" vertex="1" parent="1">
          <mxGeometry x="620" y="610" width="30" height="13.5" as="geometry" />
        </mxCell>
        <mxCell id="MiBwMPWvPkWp_ydGfVft-44" value="" style="endArrow=none;html=1;fontSize=10;entryX=0.5;entryY=1;entryDx=0;entryDy=0;entryPerimeter=0;exitX=1.011;exitY=0.567;exitDx=0;exitDy=0;exitPerimeter=0;" edge="1" parent="1" source="MiBwMPWvPkWp_ydGfVft-34" target="MiBwMPWvPkWp_ydGfVft-16">
          <mxGeometry width="50" height="50" relative="1" as="geometry">
            <mxPoint x="1040" y="450" as="sourcePoint" />
            <mxPoint x="1070" y="130" as="targetPoint" />
            <Array as="points">
              <mxPoint x="1040" y="426" />
              <mxPoint x="1040" y="443" />
            </Array>
          </mxGeometry>
        </mxCell>
        <mxCell id="MiBwMPWvPkWp_ydGfVft-45" value="" style="endArrow=none;html=1;fontSize=10;exitX=0.997;exitY=0.598;exitDx=0;exitDy=0;exitPerimeter=0;" edge="1" parent="1" source="MiBwMPWvPkWp_ydGfVft-36">
          <mxGeometry width="50" height="50" relative="1" as="geometry">
            <mxPoint x="1040" y="490" as="sourcePoint" />
            <mxPoint x="1040" y="440" as="targetPoint" />
            <Array as="points">
              <mxPoint x="1040" y="684" />
            </Array>
          </mxGeometry>
        </mxCell>
        <mxCell id="MiBwMPWvPkWp_ydGfVft-47" value="Web-VM" style="text;html=1;strokeColor=none;fillColor=none;align=center;verticalAlign=middle;whiteSpace=wrap;rounded=0;shadow=0;glass=0;sketch=0;fontSize=14;opacity=40;fontStyle=1" vertex="1" parent="1">
          <mxGeometry x="580" y="250" width="60" height="30" as="geometry" />
        </mxCell>
        <mxCell id="MiBwMPWvPkWp_ydGfVft-49" value="" style="rounded=1;whiteSpace=wrap;html=1;fontFamily=Times New Roman;fontSize=14;fillColor=#ffe6cc;strokeColor=#d79b00;opacity=40;" vertex="1" parent="1">
          <mxGeometry x="230" y="250" width="190" height="340" as="geometry" />
        </mxCell>
        <mxCell id="MiBwMPWvPkWp_ydGfVft-50" value="&lt;div style=&quot;font-size: 11px&quot;&gt;&lt;b style=&quot;font-size: 11px&quot;&gt;Jumpbox&lt;/b&gt;&lt;/div&gt;&lt;div style=&quot;font-size: 11px&quot;&gt;&lt;b style=&quot;font-size: 11px&quot;&gt;&lt;span style=&quot;color: rgb(0, 0, 0); font-size: 11px; font-style: normal; font-weight: 400; letter-spacing: normal; text-indent: 0px; text-transform: none; word-spacing: 0px; display: inline; float: none;&quot;&gt;13.64.185.209/10.1.150&lt;/span&gt;&lt;/b&gt;&lt;/div&gt;" style="text;html=1;strokeColor=none;fillColor=none;align=center;verticalAlign=middle;whiteSpace=wrap;rounded=0;fontFamily=Times New Roman;fontSize=11;labelBackgroundColor=none;" vertex="1" parent="1">
          <mxGeometry x="245" y="290" width="125" height="17.5" as="geometry" />
        </mxCell>
        <mxCell id="MiBwMPWvPkWp_ydGfVft-54" value="" style="verticalLabelPosition=bottom;html=1;verticalAlign=top;align=center;strokeColor=none;fillColor=#00BEF2;shape=mxgraph.azure.virtual_machine;fontSize=17;" vertex="1" parent="1">
          <mxGeometry x="245" y="330" width="35" height="30" as="geometry" />
        </mxCell>
        <mxCell id="MiBwMPWvPkWp_ydGfVft-55" value="" style="points=[[0,0.5,0],[0.24,0,0],[0.5,0.28,0],[0.995,0.475,0],[0.5,0.72,0],[0.24,1,0]];verticalLabelPosition=bottom;html=1;verticalAlign=top;aspect=fixed;align=center;pointerEvents=1;shape=mxgraph.cisco19.key;fillColor=#005073;strokeColor=none;fontFamily=Times New Roman;fontSize=14;" vertex="1" parent="1">
          <mxGeometry x="281.11" y="338.25" width="30" height="13.5" as="geometry" />
        </mxCell>
        <mxCell id="MiBwMPWvPkWp_ydGfVft-56" value="Home Public Key" style="text;html=1;strokeColor=none;fillColor=none;align=center;verticalAlign=middle;whiteSpace=wrap;rounded=0;fontFamily=Times New Roman;fontSize=10;fontStyle=1" vertex="1" parent="1">
          <mxGeometry x="311.11" y="338.25" width="80" height="13.25" as="geometry" />
        </mxCell>
        <mxCell id="MiBwMPWvPkWp_ydGfVft-57" value="" style="rounded=1;whiteSpace=wrap;html=1;fontFamily=Times New Roman;fontSize=14;fillColor=#ffe6cc;strokeColor=#d79b00;opacity=40;" vertex="1" parent="1">
          <mxGeometry x="270" y="380" width="120" height="70" as="geometry" />
        </mxCell>
        <mxCell id="MiBwMPWvPkWp_ydGfVft-58" value="" style="aspect=fixed;html=1;points=[];align=center;image;fontSize=12;image=img/lib/mscae/Docker.svg;fontFamily=Times New Roman;" vertex="1" parent="1">
          <mxGeometry x="280" y="387.75" width="31.1" height="25.5" as="geometry" />
        </mxCell>
        <mxCell id="MiBwMPWvPkWp_ydGfVft-59" value="Ansible" style="text;html=1;strokeColor=none;fillColor=none;align=center;verticalAlign=middle;whiteSpace=wrap;rounded=0;fontFamily=Times New Roman;fontSize=14;fontStyle=1" vertex="1" parent="1">
          <mxGeometry x="311.1" y="387.75" width="73.75" height="20" as="geometry" />
        </mxCell>
        <mxCell id="MiBwMPWvPkWp_ydGfVft-60" value="" style="points=[[0,0.5,0],[0.24,0,0],[0.5,0.28,0],[0.995,0.475,0],[0.5,0.72,0],[0.24,1,0]];verticalLabelPosition=bottom;html=1;verticalAlign=top;aspect=fixed;align=center;pointerEvents=1;shape=mxgraph.cisco19.key;fillColor=#005073;strokeColor=none;fontFamily=Times New Roman;fontSize=14;" vertex="1" parent="1">
          <mxGeometry x="280" y="425" width="22.22" height="10" as="geometry" />
        </mxCell>
        <mxCell id="MiBwMPWvPkWp_ydGfVft-61" value="Ansible Private Key" style="text;html=1;strokeColor=none;fillColor=none;align=center;verticalAlign=middle;whiteSpace=wrap;rounded=0;fontFamily=Times New Roman;fontSize=9;fontStyle=1" vertex="1" parent="1">
          <mxGeometry x="307.97" y="420" width="80" height="10" as="geometry" />
        </mxCell>
        <mxCell id="MiBwMPWvPkWp_ydGfVft-62" value="" style="endArrow=none;html=1;fontSize=9;exitX=1.015;exitY=0.547;exitDx=0;exitDy=0;exitPerimeter=0;entryX=0.006;entryY=0.389;entryDx=0;entryDy=0;entryPerimeter=0;" edge="1" parent="1" source="MiBwMPWvPkWp_ydGfVft-49" target="MiBwMPWvPkWp_ydGfVft-46">
          <mxGeometry width="50" height="50" relative="1" as="geometry">
            <mxPoint x="540" y="480" as="sourcePoint" />
            <mxPoint x="562" y="432" as="targetPoint" />
            <Array as="points" />
          </mxGeometry>
        </mxCell>
        <mxCell id="MiBwMPWvPkWp_ydGfVft-63" value="SSH" style="text;html=1;strokeColor=none;fillColor=none;align=center;verticalAlign=middle;whiteSpace=wrap;rounded=0;shadow=0;glass=0;labelBackgroundColor=none;sketch=0;fontSize=14;opacity=40;" vertex="1" parent="1">
          <mxGeometry x="450" y="415" width="60" height="20" as="geometry" />
        </mxCell>
        <mxCell id="MiBwMPWvPkWp_ydGfVft-65" value="" style="endArrow=none;html=1;fontSize=14;entryX=-0.015;entryY=0.623;entryDx=0;entryDy=0;entryPerimeter=0;exitX=0.5;exitY=1;exitDx=0;exitDy=0;" edge="1" parent="1" source="MiBwMPWvPkWp_ydGfVft-63" target="MiBwMPWvPkWp_ydGfVft-36">
          <mxGeometry width="50" height="50" relative="1" as="geometry">
            <mxPoint x="480" y="440" as="sourcePoint" />
            <mxPoint x="500" y="660" as="targetPoint" />
            <Array as="points">
              <mxPoint x="480" y="689" />
            </Array>
          </mxGeometry>
        </mxCell>
        <mxCell id="MiBwMPWvPkWp_ydGfVft-66" value="SSH" style="text;html=1;strokeColor=none;fillColor=none;align=center;verticalAlign=middle;whiteSpace=wrap;rounded=0;shadow=0;glass=0;labelBackgroundColor=none;sketch=0;fontSize=14;opacity=40;" vertex="1" parent="1">
          <mxGeometry x="490" y="570" width="40" height="20" as="geometry" />
        </mxCell>
        <mxCell id="MiBwMPWvPkWp_ydGfVft-67" value="&lt;b&gt;RedSG&lt;/b&gt;" style="aspect=fixed;html=1;points=[];align=center;image;fontSize=12;image=img/lib/azure2/networking/Network_Security_Groups.svg;fontFamily=Times New Roman;" vertex="1" parent="1">
          <mxGeometry x="80" y="366" width="56.82" height="69" as="geometry" />
        </mxCell>
        <mxCell id="MiBwMPWvPkWp_ydGfVft-68" value="" style="endArrow=none;html=1;fontSize=14;exitX=0.986;exitY=0.486;exitDx=0;exitDy=0;exitPerimeter=0;entryX=0;entryY=0.445;entryDx=0;entryDy=0;entryPerimeter=0;" edge="1" parent="1" source="MiBwMPWvPkWp_ydGfVft-67" target="MiBwMPWvPkWp_ydGfVft-49">
          <mxGeometry width="50" height="50" relative="1" as="geometry">
            <mxPoint x="168.53201999999985" y="265.88699999999994" as="sourcePoint" />
            <mxPoint x="210" y="440" as="targetPoint" />
            <Array as="points">
              <mxPoint x="190" y="400" />
            </Array>
          </mxGeometry>
        </mxCell>
        <mxCell id="MiBwMPWvPkWp_ydGfVft-72" value="&lt;span&gt;Allow SSH from local&lt;br&gt;&lt;/span&gt;Allow Jumpbox to webvm via SSH&lt;br&gt;HTTP to WebVM&lt;br&gt;Allow SSH to Jumpbox&amp;nbsp;&lt;br&gt;Deny other inbound traffics" style="text;html=1;strokeColor=none;fillColor=none;align=left;verticalAlign=middle;whiteSpace=wrap;rounded=0;shadow=0;glass=0;labelBackgroundColor=none;sketch=0;fontSize=10;opacity=40;" vertex="1" parent="1">
          <mxGeometry x="80" y="300" width="110" height="40" as="geometry" />
        </mxCell>
        <mxCell id="MiBwMPWvPkWp_ydGfVft-73" value="" style="endArrow=none;html=1;fontSize=10;entryX=-0.035;entryY=0.551;entryDx=0;entryDy=0;entryPerimeter=0;exitX=0.5;exitY=0;exitDx=0;exitDy=0;" edge="1" parent="1" source="MiBwMPWvPkWp_ydGfVft-5" target="MiBwMPWvPkWp_ydGfVft-67">
          <mxGeometry width="50" height="50" relative="1" as="geometry">
            <mxPoint x="30" y="430" as="sourcePoint" />
            <mxPoint x="80" y="380" as="targetPoint" />
            <Array as="points">
              <mxPoint x="10" y="404" />
            </Array>
          </mxGeometry>
        </mxCell>
        <mxCell id="MiBwMPWvPkWp_ydGfVft-77" value="" style="endArrow=none;html=1;fontSize=10;exitX=1;exitY=0.75;exitDx=0;exitDy=0;" edge="1" parent="1" source="MiBwMPWvPkWp_ydGfVft-5" target="MiBwMPWvPkWp_ydGfVft-107">
          <mxGeometry width="50" height="50" relative="1" as="geometry">
            <mxPoint x="60" y="580" as="sourcePoint" />
            <mxPoint x="560" y="1180" as="targetPoint" />
            <Array as="points">
              <mxPoint x="118" y="590" />
              <mxPoint x="118" y="1010" />
              <mxPoint x="118" y="1350" />
              <mxPoint x="1120" y="1340" />
            </Array>
          </mxGeometry>
        </mxCell>
        <mxCell id="MiBwMPWvPkWp_ydGfVft-79" value="" style="verticalLabelPosition=bottom;html=1;verticalAlign=top;align=center;strokeColor=none;fillColor=#00BEF2;shape=mxgraph.azure.virtual_machine;fontSize=17;" vertex="1" parent="1">
          <mxGeometry x="860" y="960" width="30" height="30" as="geometry" />
        </mxCell>
        <mxCell id="MiBwMPWvPkWp_ydGfVft-81" value="ELKVM&lt;br&gt;&lt;span style=&quot;font-weight: normal&quot;&gt;20.39.45.144/10.0.0.4&lt;/span&gt;" style="text;html=1;strokeColor=none;fillColor=none;align=left;verticalAlign=middle;whiteSpace=wrap;rounded=0;shadow=0;glass=0;labelBackgroundColor=none;sketch=0;fontSize=14;opacity=40;fontStyle=1" vertex="1" parent="1">
          <mxGeometry x="870" y="910" width="120" height="40" as="geometry" />
        </mxCell>
        <mxCell id="MiBwMPWvPkWp_ydGfVft-82" value="" style="points=[[0,0.5,0],[0.24,0,0],[0.5,0.28,0],[0.995,0.475,0],[0.5,0.72,0],[0.24,1,0]];verticalLabelPosition=bottom;html=1;verticalAlign=top;aspect=fixed;align=center;pointerEvents=1;shape=mxgraph.cisco19.key;fillColor=#005073;strokeColor=none;fontFamily=Times New Roman;fontSize=14;" vertex="1" parent="1">
          <mxGeometry x="900" y="960" width="30" height="13.5" as="geometry" />
        </mxCell>
        <mxCell id="MiBwMPWvPkWp_ydGfVft-83" value="Ansible Public Key" style="text;html=1;strokeColor=none;fillColor=none;align=center;verticalAlign=middle;whiteSpace=wrap;rounded=0;fontFamily=Times New Roman;fontSize=10;fontStyle=1" vertex="1" parent="1">
          <mxGeometry x="930" y="952.6200000000001" width="90" height="28.25" as="geometry" />
        </mxCell>
        <mxCell id="MiBwMPWvPkWp_ydGfVft-85" value="&amp;nbsp;&amp;nbsp;&amp;nbsp;&amp;nbsp;&amp;nbsp;&lt;font style=&quot;font-size: 10px;&quot;&gt; &lt;b style=&quot;font-size: 10px;&quot;&gt;DVWA&lt;/b&gt;&lt;/font&gt;" style="aspect=fixed;html=1;points=[];align=left;image;fontSize=10;image=img/lib/mscae/Docker.svg;fontFamily=Times New Roman;labelPosition=right;verticalLabelPosition=middle;verticalAlign=middle;labelBackgroundColor=none;" vertex="1" parent="1">
          <mxGeometry x="862.8" y="990" width="37.2" height="30.5" as="geometry" />
        </mxCell>
        <mxCell id="MiBwMPWvPkWp_ydGfVft-91" value="&lt;div style=&quot;&quot;&gt;&lt;span&gt;OS: Linux Ubuntu&lt;/span&gt;&lt;/div&gt;Allowed IP: 10.1.150, Personal IP" style="text;html=1;strokeColor=none;fillColor=none;align=left;verticalAlign=middle;whiteSpace=wrap;rounded=0;shadow=0;glass=0;labelBackgroundColor=none;sketch=0;fontSize=14;opacity=40;labelPosition=center;verticalLabelPosition=middle;" vertex="1" parent="1">
          <mxGeometry x="604.24" y="394.25" width="142.88" height="90.25" as="geometry" />
        </mxCell>
        <mxCell id="MiBwMPWvPkWp_ydGfVft-93" value="&lt;div style=&quot;&quot;&gt;&lt;span&gt;OS: Linux Ubuntu&lt;/span&gt;&lt;/div&gt;Allowed IP: 10.1.150, Personal IP" style="text;html=1;strokeColor=none;fillColor=none;align=left;verticalAlign=middle;whiteSpace=wrap;rounded=0;shadow=0;glass=0;labelBackgroundColor=none;sketch=0;fontSize=14;opacity=40;labelPosition=center;verticalLabelPosition=middle;" vertex="1" parent="1">
          <mxGeometry x="585" y="660" width="142.88" height="90.25" as="geometry" />
        </mxCell>
        <mxCell id="MiBwMPWvPkWp_ydGfVft-95" value="Ansible Public Key" style="text;html=1;strokeColor=none;fillColor=none;align=center;verticalAlign=middle;whiteSpace=wrap;rounded=0;fontFamily=Times New Roman;fontSize=10;fontStyle=1" vertex="1" parent="1">
          <mxGeometry x="650" y="608.07" width="90" height="17.37" as="geometry" />
        </mxCell>
        <mxCell id="MiBwMPWvPkWp_ydGfVft-96" value="&amp;nbsp;&amp;nbsp;&amp;nbsp;&amp;nbsp;&amp;nbsp;&lt;font style=&quot;font-size: 10px;&quot;&gt; &lt;b style=&quot;font-size: 10px;&quot;&gt;DVWA&lt;/b&gt;&lt;/font&gt;" style="aspect=fixed;html=1;points=[];align=left;image;fontSize=10;image=img/lib/mscae/Docker.svg;fontFamily=Times New Roman;labelPosition=right;verticalLabelPosition=middle;verticalAlign=middle;labelBackgroundColor=none;" vertex="1" parent="1">
          <mxGeometry x="589.15" y="648.25" width="26.52" height="21.75" as="geometry" />
        </mxCell>
        <mxCell id="MiBwMPWvPkWp_ydGfVft-97" value="&lt;div&gt;&lt;span&gt;OS: Linux Ubuntu&lt;/span&gt;&lt;/div&gt;Allowed IP: Personal IP&lt;br&gt;Eposed Ports: 22, 80, 5601" style="text;html=1;strokeColor=none;fillColor=none;align=left;verticalAlign=middle;whiteSpace=wrap;rounded=0;shadow=0;glass=0;labelBackgroundColor=none;sketch=0;fontSize=14;opacity=40;labelPosition=center;verticalLabelPosition=middle;" vertex="1" parent="1">
          <mxGeometry x="858.56" y="1020.5" width="142.88" height="90.25" as="geometry" />
        </mxCell>
        <mxCell id="MiBwMPWvPkWp_ydGfVft-100" style="edgeStyle=orthogonalEdgeStyle;rounded=0;orthogonalLoop=1;jettySize=auto;html=1;exitX=0.5;exitY=1;exitDx=0;exitDy=0;fontSize=14;" edge="1" parent="1" source="MiBwMPWvPkWp_ydGfVft-56" target="MiBwMPWvPkWp_ydGfVft-56">
          <mxGeometry relative="1" as="geometry" />
        </mxCell>
        <mxCell id="MiBwMPWvPkWp_ydGfVft-102" value="&lt;div&gt;&lt;span&gt;OS: Linux Ubuntu&lt;/span&gt;&lt;/div&gt;Exposed Ports&lt;br&gt;Allowed IP:Personal IP" style="text;html=1;strokeColor=none;fillColor=none;align=left;verticalAlign=middle;whiteSpace=wrap;rounded=0;shadow=0;glass=0;labelBackgroundColor=none;sketch=0;fontSize=14;opacity=40;labelPosition=center;verticalLabelPosition=middle;" vertex="1" parent="1">
          <mxGeometry x="257.89" y="449" width="142.88" height="90.25" as="geometry" />
        </mxCell>
        <mxCell id="MiBwMPWvPkWp_ydGfVft-105" value="Port 80" style="text;html=1;strokeColor=none;fillColor=none;align=center;verticalAlign=middle;whiteSpace=wrap;rounded=0;shadow=0;glass=0;labelBackgroundColor=none;sketch=0;fontSize=14;opacity=40;" vertex="1" parent="1">
          <mxGeometry x="890" y="405" width="60" height="20" as="geometry" />
        </mxCell>
        <mxCell id="MiBwMPWvPkWp_ydGfVft-106" value="Port 80" style="text;html=1;strokeColor=none;fillColor=none;align=center;verticalAlign=middle;whiteSpace=wrap;rounded=0;shadow=0;glass=0;labelBackgroundColor=none;sketch=0;fontSize=14;opacity=40;" vertex="1" parent="1">
          <mxGeometry x="905" y="660" width="60" height="20" as="geometry" />
        </mxCell>
        <mxCell id="MiBwMPWvPkWp_ydGfVft-107" value="&lt;b&gt;ELK-SG&lt;/b&gt;" style="aspect=fixed;html=1;points=[];align=center;image;fontSize=12;image=img/lib/azure2/networking/Network_Security_Groups.svg;fontFamily=Times New Roman;" vertex="1" parent="1">
          <mxGeometry x="1090" y="940.5" width="56.82" height="69" as="geometry" />
        </mxCell>
        <mxCell id="MiBwMPWvPkWp_ydGfVft-110" value="" style="endArrow=none;html=1;fontSize=14;exitX=1;exitY=1;exitDx=0;exitDy=0;entryX=0.005;entryY=0.604;entryDx=0;entryDy=0;entryPerimeter=0;" edge="1" parent="1" source="MiBwMPWvPkWp_ydGfVft-83" target="MiBwMPWvPkWp_ydGfVft-107">
          <mxGeometry width="50" height="50" relative="1" as="geometry">
            <mxPoint x="1020" y="1020" as="sourcePoint" />
            <mxPoint x="1070" y="970" as="targetPoint" />
          </mxGeometry>
        </mxCell>
        <mxCell id="MiBwMPWvPkWp_ydGfVft-111" value="&lt;font style=&quot;font-size: 14px&quot;&gt;Allow Personal IP to use port 5601&lt;br&gt;Can SSH from Jumpbox&lt;br&gt;&lt;/font&gt;" style="text;html=1;strokeColor=none;fillColor=none;align=left;verticalAlign=middle;whiteSpace=wrap;rounded=0;shadow=0;glass=0;labelBackgroundColor=none;sketch=0;fontSize=14;opacity=40;" vertex="1" parent="1">
          <mxGeometry x="1050" y="1040" width="130" height="120" as="geometry" />
        </mxCell>
        <mxCell id="MiBwMPWvPkWp_ydGfVft-112" value="&lt;b&gt;RedTeam Resource Group&lt;br&gt;&lt;/b&gt;" style="text;html=1;strokeColor=none;fillColor=none;align=center;verticalAlign=middle;whiteSpace=wrap;rounded=0;fontFamily=Times New Roman;fontSize=14;" vertex="1" parent="1">
          <mxGeometry x="310" y="80" width="350" height="20" as="geometry" />
        </mxCell>
        <mxCell id="MiBwMPWvPkWp_ydGfVft-113" value="RedTeamNet 10.1.0.0/16" style="text;html=1;strokeColor=none;fillColor=none;align=center;verticalAlign=middle;whiteSpace=wrap;rounded=0;fontFamily=Times New Roman;fontSize=14;fontStyle=1" vertex="1" parent="1">
          <mxGeometry x="418.66" y="140" width="200" height="30" as="geometry" />
        </mxCell>
        <mxCell id="MiBwMPWvPkWp_ydGfVft-114" value="RedTeamNet Subnet 10.1.0.0/24" style="text;html=1;strokeColor=none;fillColor=none;align=center;verticalAlign=middle;whiteSpace=wrap;rounded=0;fontFamily=Times New Roman;fontSize=14;fontStyle=1" vertex="1" parent="1">
          <mxGeometry x="382.5" y="170" width="195" height="20" as="geometry" />
        </mxCell>
        <mxCell id="MiBwMPWvPkWp_ydGfVft-117" value="ELK Subnet 10.0.0.0/24" style="text;html=1;strokeColor=none;fillColor=none;align=center;verticalAlign=middle;whiteSpace=wrap;rounded=0;fontFamily=Times New Roman;fontSize=14;fontStyle=1" vertex="1" parent="1">
          <mxGeometry x="927.5" y="820" width="195" height="20" as="geometry" />
        </mxCell>
        <mxCell id="MiBwMPWvPkWp_ydGfVft-118" value="ELK Virtual Network 10.0.0.0/16" style="text;html=1;strokeColor=none;fillColor=none;align=center;verticalAlign=middle;whiteSpace=wrap;rounded=0;fontFamily=Times New Roman;fontSize=14;fontStyle=1" vertex="1" parent="1">
          <mxGeometry x="927.5" y="772.25" width="232.5" height="17.75" as="geometry" />
        </mxCell>
        <mxCell id="MiBwMPWvPkWp_ydGfVft-119" value="Http" style="text;html=1;strokeColor=none;fillColor=none;align=center;verticalAlign=middle;whiteSpace=wrap;rounded=0;shadow=0;glass=0;labelBackgroundColor=none;sketch=0;fontSize=14;opacity=40;" vertex="1" parent="1">
          <mxGeometry x="1024" y="950" width="40" height="20" as="geometry" />
        </mxCell>
        <mxCell id="MiBwMPWvPkWp_ydGfVft-120" value="" style="endArrow=none;html=1;fontSize=14;exitX=0.371;exitY=0.004;exitDx=0;exitDy=0;exitPerimeter=0;" edge="1" parent="1" source="MiBwMPWvPkWp_ydGfVft-80">
          <mxGeometry width="50" height="50" relative="1" as="geometry">
            <mxPoint x="1080" y="930" as="sourcePoint" />
            <mxPoint x="325" y="590" as="targetPoint" />
            <Array as="points">
              <mxPoint x="913" y="880" />
              <mxPoint x="780" y="880" />
              <mxPoint x="330" y="880" />
            </Array>
          </mxGeometry>
        </mxCell>
        <mxCell id="MiBwMPWvPkWp_ydGfVft-121" value="&amp;nbsp;SSH from container" style="text;html=1;strokeColor=none;fillColor=none;align=center;verticalAlign=middle;whiteSpace=wrap;rounded=0;shadow=0;glass=0;labelBackgroundColor=none;sketch=0;fontSize=14;opacity=40;" vertex="1" parent="1">
          <mxGeometry x="490" y="850" width="80" height="20" as="geometry" />
        </mxCell>
      </root>
    </mxGraphModel>
  </diagram>
</mxfile>
